<mxfile host="Electron" agent="Mozilla/5.0 (X11; Linux x86_64) AppleWebKit/537.36 (KHTML, like Gecko) draw.io/26.1.1 Chrome/132.0.6834.210 Electron/34.3.3 Safari/537.36" version="26.1.1">
  <diagram name="Page-1" id="HakByovjmmUzS4Hiy8Jq">
    <mxGraphModel dx="1059" dy="717" grid="1" gridSize="10" guides="1" tooltips="1" connect="1" arrows="1" fold="1" page="1" pageScale="1" pageWidth="1100" pageHeight="850" background="#333333" math="0" shadow="0">
      <root>
        <mxCell id="0" />
        <mxCell id="1" parent="0" />
        <mxCell id="osvTJ9u-8po46XqN-MSW-1" value="Ethernet" style="rounded=0;whiteSpace=wrap;html=1;fillColor=#EE0000;fontFamily=Red Hat Text;fontStyle=1;fontColor=#FFFFFF;fontSize=10;" vertex="1" parent="1">
          <mxGeometry x="240" y="460" width="160" height="40" as="geometry" />
        </mxCell>
        <mxCell id="osvTJ9u-8po46XqN-MSW-2" value="bond" style="rounded=0;whiteSpace=wrap;html=1;fillColor=#EE0000;fontFamily=Red Hat Text;fontStyle=1;fontColor=#FFFFFF;fontSize=10;" vertex="1" parent="1">
          <mxGeometry x="240" y="400" width="160" height="40" as="geometry" />
        </mxCell>
        <mxCell id="osvTJ9u-8po46XqN-MSW-7" value="ovs-bridge" style="rounded=0;whiteSpace=wrap;html=1;fillColor=#EE0000;fontFamily=Red Hat Text;fontStyle=1;fontColor=#FFFFFF;fontSize=10;" vertex="1" parent="1">
          <mxGeometry x="240" y="340" width="160" height="40" as="geometry" />
        </mxCell>
        <mxCell id="osvTJ9u-8po46XqN-MSW-9" value="ovn-bridge-mapping" style="rounded=0;whiteSpace=wrap;html=1;fillColor=#EE0000;fontFamily=Red Hat Text;fontStyle=1;fontColor=#FFFFFF;fontSize=10;" vertex="1" parent="1">
          <mxGeometry x="240" y="280" width="160" height="40" as="geometry" />
        </mxCell>
        <mxCell id="osvTJ9u-8po46XqN-MSW-10" value="localnet" style="rounded=0;whiteSpace=wrap;html=1;fillColor=#EE0000;fontFamily=Red Hat Text;fontStyle=1;fontColor=#FFFFFF;fontSize=10;" vertex="1" parent="1">
          <mxGeometry x="240" y="220" width="160" height="40" as="geometry" />
        </mxCell>
        <mxCell id="osvTJ9u-8po46XqN-MSW-11" value="ClusterUserDefinedNetwork" style="rounded=0;whiteSpace=wrap;html=1;fillColor=#EE0000;fontFamily=Red Hat Text;fontStyle=1;fontColor=#FFFFFF;fontSize=10;" vertex="1" parent="1">
          <mxGeometry x="240" y="160" width="160" height="40" as="geometry" />
        </mxCell>
        <mxCell id="osvTJ9u-8po46XqN-MSW-12" value="Pod" style="rounded=0;whiteSpace=wrap;html=1;fillColor=#666666;fontColor=#FFFFFF;fontStyle=1" vertex="1" parent="1">
          <mxGeometry x="240" y="100" width="70" height="40" as="geometry" />
        </mxCell>
        <mxCell id="osvTJ9u-8po46XqN-MSW-13" value="Switch" style="rounded=0;whiteSpace=wrap;html=1;fillColor=#FFCC17;fontFamily=Red Hat Text;fontStyle=1;fontColor=#000000;fontSize=10;" vertex="1" parent="1">
          <mxGeometry x="240" y="520" width="160" height="40" as="geometry" />
        </mxCell>
        <mxCell id="osvTJ9u-8po46XqN-MSW-15" value="VM" style="rounded=0;whiteSpace=wrap;html=1;fillColor=#666666;fontColor=#FFFFFF;fontStyle=1" vertex="1" parent="1">
          <mxGeometry x="330" y="100" width="70" height="40" as="geometry" />
        </mxCell>
      </root>
    </mxGraphModel>
  </diagram>
</mxfile>
